<svg width="14" height="14" viewBox="0 0 14 14" fill="none" xmlns="http://www.w3.org/2000/svg">
<path d="M13.5 6.75C13.5 6.96483 13.4147 7.17085 13.2628 7.32276C13.1109 7.47466 12.9048 7.56 12.69 7.56H7.56V12.69C7.56 12.9048 7.47466 13.1109 7.32276 13.2628C7.17085 13.4147 6.96483 13.5 6.75 13.5C6.53517 13.5 6.32915 13.4147 6.17724 13.2628C6.02534 13.1109 5.94 12.9048 5.94 12.69V7.56H0.81C0.595175 7.56 0.389148 7.47466 0.237244 7.32276C0.0853391 7.17085 0 6.96483 0 6.75C0 6.53517 0.0853391 6.32915 0.237244 6.17724C0.389148 6.02534 0.595175 5.94 0.81 5.94H5.94V0.81C5.94 0.595175 6.02534 0.389148 6.17724 0.237244C6.32915 0.0853391 6.53517 0 6.75 0C6.96483 0 7.17085 0.0853391 7.32276 0.237244C7.47466 0.389148 7.56 0.595175 7.56 0.81V5.94H12.69C12.9048 5.94 13.1109 6.02534 13.2628 6.17724C13.4147 6.32915 13.5 6.53517 13.5 6.75Z" fill="#869CFF"/>
</svg>
