<svg width="24" height="20" viewBox="0 0 24 20" fill="none" xmlns="http://www.w3.org/2000/svg">
<path d="M18 10.998H13V15.998C13 16.2633 12.8946 16.5176 12.7071 16.7052C12.5196 16.8927 12.2652 16.998 12 16.998C11.7348 16.998 11.4804 16.8927 11.2929 16.7052C11.1054 16.5176 11 16.2633 11 15.998V10.998H6C5.73478 10.998 5.48043 10.8927 5.29289 10.7052C5.10536 10.5176 5 10.2633 5 9.99805C5 9.73283 5.10536 9.47848 5.29289 9.29094C5.48043 9.1034 5.73478 8.99805 6 8.99805H11V3.99805C11 3.73283 11.1054 3.47848 11.2929 3.29094C11.4804 3.1034 11.7348 2.99805 12 2.99805C12.2652 2.99805 12.5196 3.1034 12.7071 3.29094C12.8946 3.47848 13 3.73283 13 3.99805V8.99805H18C18.2652 8.99805 18.5196 9.1034 18.7071 9.29094C18.8946 9.47848 19 9.73283 19 9.99805C19 10.2633 18.8946 10.5176 18.7071 10.7052C18.5196 10.8927 18.2652 10.998 18 10.998Z" fill="#222222"/>
</svg>
