<svg width="20" height="20" viewBox="0 0 20 20" fill="none" xmlns="http://www.w3.org/2000/svg">
<g clip-path="url(#clip0_447_641)">
<mask id="path-1-inside-1_447_641" fill="white">
<path d="M7.91667 12.9867V7.01333C7.91679 6.9386 7.93702 6.86527 7.97522 6.80103C8.01342 6.7368 8.0682 6.68402 8.13381 6.64824C8.19942 6.61245 8.27345 6.59497 8.34814 6.59762C8.42283 6.60028 8.49543 6.62297 8.55833 6.66333L13.205 9.64917C13.2638 9.68686 13.3122 9.73875 13.3458 9.80006C13.3793 9.86137 13.3969 9.93012 13.3969 10C13.3969 10.0699 13.3793 10.1386 13.3458 10.1999C13.3122 10.2612 13.2638 10.3131 13.205 10.3508L8.55833 13.3375C8.49543 13.3779 8.42283 13.4006 8.34814 13.4032C8.27345 13.4059 8.19942 13.3884 8.13381 13.3526C8.0682 13.3168 8.01342 13.264 7.97522 13.1998C7.93702 13.1356 7.91679 13.0622 7.91667 12.9875V12.9867Z"/>
</mask>
<path d="M7.91667 12.9867V7.01333C7.91679 6.9386 7.93702 6.86527 7.97522 6.80103C8.01342 6.7368 8.0682 6.68402 8.13381 6.64824C8.19942 6.61245 8.27345 6.59497 8.34814 6.59762C8.42283 6.60028 8.49543 6.62297 8.55833 6.66333L13.205 9.64917C13.2638 9.68686 13.3122 9.73875 13.3458 9.80006C13.3793 9.86137 13.3969 9.93012 13.3969 10C13.3969 10.0699 13.3793 10.1386 13.3458 10.1999C13.3122 10.2612 13.2638 10.3131 13.205 10.3508L8.55833 13.3375C8.49543 13.3779 8.42283 13.4006 8.34814 13.4032C8.27345 13.4059 8.19942 13.3884 8.13381 13.3526C8.0682 13.3168 8.01342 13.264 7.97522 13.1998C7.93702 13.1356 7.91679 13.0622 7.91667 12.9875V12.9867Z" fill="#324FD5"/>
<path d="M7.91667 7.01333L-2.08332 6.99669L-2.08333 7.00501V7.01333H7.91667ZM8.55833 6.66333L13.9642 -1.74953L13.9583 -1.75331L8.55833 6.66333ZM13.205 9.64917L7.7991 18.062L7.81023 18.0692L13.205 9.64917ZM13.205 10.3508L7.81023 1.93083L7.80413 1.93474L7.79803 1.93865L13.205 10.3508ZM8.55833 13.3375L13.9584 21.7541L13.9653 21.7497L8.55833 13.3375ZM7.91667 12.9875H-2.08333V12.9958L-2.08332 13.0041L7.91667 12.9875ZM17.9167 12.9867V7.01333H-2.08333V12.9867H17.9167ZM17.9167 7.02997C17.9138 8.74888 17.4487 10.4354 16.57 11.9128L-0.619519 1.68924C-1.57463 3.29512 -2.08021 5.12831 -2.08332 6.99669L17.9167 7.02997ZM16.57 11.9128C15.6913 13.3902 14.4314 14.6041 12.9223 15.4272L3.34529 -2.13072C1.70503 -1.23603 0.335586 0.0833678 -0.619519 1.68924L16.57 11.9128ZM12.9223 15.4272C11.4133 16.2503 9.7106 16.6524 7.99276 16.5913L8.70353 -3.39606C6.83631 -3.46246 4.98558 -3.02542 3.34529 -2.13072L12.9223 15.4272ZM7.99276 16.5913C6.27493 16.5302 4.60512 16.0082 3.15832 15.08L13.9583 -1.75331C12.3857 -2.76227 10.5707 -3.32966 8.70353 -3.39606L7.99276 16.5913ZM3.15244 15.0762L7.7991 18.062L18.6109 1.2363L13.9642 -1.74953L3.15244 15.0762ZM7.81023 18.0692C6.45697 17.2021 5.34352 16.0087 4.5723 14.5986L22.1193 5.0015C21.281 3.46884 20.0707 2.1716 18.5998 1.22917L7.81023 18.0692ZM4.5723 14.5986C3.80112 13.1886 3.39689 11.6072 3.39689 10H23.3969C23.3969 8.253 22.9575 6.53412 22.1193 5.0015L4.5723 14.5986ZM3.39689 10C3.39689 8.39275 3.80112 6.81138 4.5723 5.40138L22.1193 14.9985C22.9575 13.4659 23.3969 11.747 23.3969 10H3.39689ZM4.5723 5.40138C5.34352 3.99133 6.45697 2.79788 7.81023 1.93083L18.5998 18.7708C20.0707 17.8284 21.281 16.5312 22.1193 14.9985L4.5723 5.40138ZM7.79803 1.93865L3.15137 4.92532L13.9653 21.7497L18.612 18.763L7.79803 1.93865ZM3.15832 4.92086C4.605 3.99268 6.27479 3.47062 7.99276 3.40953L8.70353 23.3969C10.5709 23.3305 12.3859 22.763 13.9583 21.7541L3.15832 4.92086ZM7.99276 3.40953C9.71071 3.34843 11.4134 3.75056 12.9223 4.57364L3.34529 22.1316C4.98549 23.0262 6.8362 23.4633 8.70353 23.3969L7.99276 3.40953ZM12.9223 4.57364C14.4313 5.39673 15.6912 6.61055 16.57 8.088L-0.619519 18.3116C0.335613 19.9175 1.70508 21.2369 3.34529 22.1316L12.9223 4.57364ZM16.57 8.088C17.4487 9.56542 17.9138 11.252 17.9167 12.9709L-2.08332 13.0041C-2.08021 14.8725 -1.57463 16.7057 -0.619519 18.3116L16.57 8.088ZM17.9167 12.9875V12.9867H-2.08333V12.9875H17.9167Z" fill="#324FD5" mask="url(#path-1-inside-1_447_641)"/>
<path d="M0.833332 10C0.833332 4.9375 4.9375 0.833332 10 0.833332C15.0625 0.833332 19.1667 4.9375 19.1667 10C19.1667 15.0625 15.0625 19.1667 10 19.1667C4.9375 19.1667 0.833332 15.0625 0.833332 10ZM10 2.08333C7.90037 2.08333 5.88673 2.91741 4.40207 4.40207C2.91741 5.88673 2.08333 7.90037 2.08333 10C2.08333 12.0996 2.91741 14.1133 4.40207 15.5979C5.88673 17.0826 7.90037 17.9167 10 17.9167C12.0996 17.9167 14.1133 17.0826 15.5979 15.5979C17.0826 14.1133 17.9167 12.0996 17.9167 10C17.9167 7.90037 17.0826 5.88673 15.5979 4.40207C14.1133 2.91741 12.0996 2.08333 10 2.08333Z" fill="#324FD5"/>
</g>
<defs>
<clipPath id="clip0_447_641">
<rect width="20" height="20" fill="white"/>
</clipPath>
</defs>
</svg>
